<?xml version="1.0" encoding="utf-8"?>
<!-- Generator: Adobe Illustrator 25.0.0, SVG Export Plug-In . SVG Version: 6.00 Build 0)  -->
<svg version="1.1" id="Capa_1" xmlns="http://www.w3.org/2000/svg" xmlns:xlink="http://www.w3.org/1999/xlink" x="0px" y="0px"
	 viewBox="0 0 512 512" style="enable-background:new 0 0 512 512;" xml:space="preserve">
<style type="text/css">
	.st0{fill:#FFFFFF;}
</style>
<g>
	<g>
		<path class="st0" d="M348.8,428.5c-14.2,0-27.5-3.3-38.5-10c-8.8-5.1-16.5-13.8-19.6-22.1c-3.1-8.4-2.8-25.7-2.8-55.3V223.8H416
			V128H287.9V0h-82.5c-3.3,26.3-9.3,48.2-18.1,65.1c-8.4,17.2-20.3,31.8-34.2,44.1c-14.5,12.2-36.9,21.5-57.1,28.1v72.5h68.7v179.4
			c0,23.5,2.4,41.5,7.4,53.7c5,12.4,13.4,24,26.4,34.8c12.7,11,28,19.5,46.2,25.4c17.7,5.9,31.7,8.7,55.1,8.7
			c20.6,0,39.8-2,57.4-6.3c17.6-4,36.8-10.1,58.8-20.4v-77C390.3,425.2,374.8,428.5,348.8,428.5z"/>
	</g>
</g>
</svg>
